<?xml version="1.0" encoding="UTF-8" standalone="no"?>
<!-- Created with Inkscape (http://www.inkscape.org/) -->

<svg
   xmlns:dc="http://purl.org/dc/elements/1.1/"
   xmlns:cc="http://creativecommons.org/ns#"
   xmlns:rdf="http://www.w3.org/1999/02/22-rdf-syntax-ns#"
   xmlns:svg="http://www.w3.org/2000/svg"
   xmlns="http://www.w3.org/2000/svg"
   xmlns:xlink="http://www.w3.org/1999/xlink"
   xmlns:sodipodi="http://sodipodi.sourceforge.net/DTD/sodipodi-0.dtd"
   xmlns:inkscape="http://www.inkscape.org/namespaces/inkscape"
   width="64"
   height="64"
   id="svg2"
   version="1.1"
   inkscape:version="0.48.0 r9654"
   sodipodi:docname="logo.svg">
  <defs
     id="defs4">
    <linearGradient
       id="linearGradient3914">
      <stop
         id="stop3916"
         offset="0"
         style="stop-color:#84ff02;stop-opacity:1;" />
      <stop
         id="stop3918"
         offset="1"
         style="stop-color:#54ff0b;stop-opacity:1;" />
    </linearGradient>
    <linearGradient
       id="linearGradient3866">
      <stop
         style="stop-color:#ffffff;stop-opacity:1;"
         offset="0"
         id="stop3868" />
      <stop
         style="stop-color:#ffffff;stop-opacity:0;"
         offset="1"
         id="stop3870" />
    </linearGradient>
    <linearGradient
       id="linearGradient3852">
      <stop
         style="stop-color:#ffbe02;stop-opacity:1;"
         offset="0"
         id="stop3854" />
      <stop
         style="stop-color:#ff8d0b;stop-opacity:1;"
         offset="1"
         id="stop3856" />
    </linearGradient>
    <linearGradient
       id="linearGradient3841">
      <stop
         style="stop-color:#c9c9c9;stop-opacity:1;"
         offset="0"
         id="stop3843" />
      <stop
         style="stop-color:#242424;stop-opacity:1;"
         offset="1"
         id="stop3845" />
    </linearGradient>
    <linearGradient
       id="linearGradient3833">
      <stop
         style="stop-color:#6f6f6f;stop-opacity:1;"
         offset="0"
         id="stop3835" />
      <stop
         style="stop-color:#363636;stop-opacity:1;"
         offset="1"
         id="stop3837" />
    </linearGradient>
    <radialGradient
       inkscape:collect="always"
       xlink:href="#linearGradient3852"
       id="radialGradient3858"
       cx="237.36151"
       cy="786.67389"
       fx="237.36151"
       fy="786.67389"
       r="188.38292"
       gradientTransform="matrix(1.2861638,0,0,1.2098224,-67.924276,-160.95143)"
       gradientUnits="userSpaceOnUse" />
    <radialGradient
       inkscape:collect="always"
       xlink:href="#linearGradient3852"
       id="radialGradient3900"
       gradientUnits="userSpaceOnUse"
       gradientTransform="matrix(1.2861638,0,0,1.2098224,-67.924276,-160.95143)"
       cx="212.91164"
       cy="745.82819"
       fx="212.91164"
       fy="745.82819"
       r="188.38292" />
    <radialGradient
       inkscape:collect="always"
       xlink:href="#linearGradient3852"
       id="radialGradient3902"
       gradientUnits="userSpaceOnUse"
       gradientTransform="matrix(1.2861638,0,0,1.2098224,-67.924276,-160.95143)"
       cx="237.36151"
       cy="786.67389"
       fx="237.36151"
       fy="786.67389"
       r="188.38292" />
    <radialGradient
       inkscape:collect="always"
       xlink:href="#linearGradient3852"
       id="radialGradient3904"
       gradientUnits="userSpaceOnUse"
       gradientTransform="matrix(1.2861638,0,0,1.2098224,-67.924276,-160.95143)"
       cx="237.36151"
       cy="786.67389"
       fx="237.36151"
       fy="786.67389"
       r="188.38292" />
    <radialGradient
       inkscape:collect="always"
       xlink:href="#linearGradient3914"
       id="radialGradient3912"
       cx="388.67529"
       cy="448.59686"
       fx="388.67529"
       fy="448.59686"
       r="98.080772"
       gradientTransform="matrix(0.16218358,0,0,0.20719443,-26.306758,928.85896)"
       gradientUnits="userSpaceOnUse" />
    <radialGradient
       inkscape:collect="always"
       xlink:href="#linearGradient3833"
       id="radialGradient3947"
       gradientUnits="userSpaceOnUse"
       cx="220.47278"
       cy="241.69354"
       fx="220.47278"
       fy="241.69354"
       r="196.52856" />
    <linearGradient
       inkscape:collect="always"
       xlink:href="#linearGradient3841"
       id="linearGradient3949"
       gradientUnits="userSpaceOnUse"
       x1="122.32294"
       y1="225.70038"
       x2="175.52568"
       y2="503.32306" />
    <linearGradient
       inkscape:collect="always"
       xlink:href="#linearGradient3866"
       id="linearGradient3951"
       gradientUnits="userSpaceOnUse"
       x1="366.66241"
       y1="-465.41522"
       x2="370.72598"
       y2="-535.02045" />
    <radialGradient
       inkscape:collect="always"
       xlink:href="#linearGradient3914"
       id="radialGradient3953"
       gradientUnits="userSpaceOnUse"
       gradientTransform="matrix(0.16218358,0,0,0.20719443,-26.306758,928.85896)"
       cx="388.67529"
       cy="448.59686"
       fx="388.67529"
       fy="448.59686"
       r="98.080772" />
    <radialGradient
       inkscape:collect="always"
       xlink:href="#linearGradient3833"
       id="radialGradient3955"
       gradientUnits="userSpaceOnUse"
       cx="220.47278"
       cy="241.69354"
       fx="220.47278"
       fy="241.69354"
       r="196.52856" />
    <linearGradient
       inkscape:collect="always"
       xlink:href="#linearGradient3841"
       id="linearGradient3957"
       gradientUnits="userSpaceOnUse"
       x1="122.32294"
       y1="225.70038"
       x2="175.52568"
       y2="503.32306" />
    <radialGradient
       inkscape:collect="always"
       xlink:href="#linearGradient3914"
       id="radialGradient3961"
       gradientUnits="userSpaceOnUse"
       gradientTransform="matrix(0.16218358,0,0,0.20719443,-26.306758,928.85896)"
       cx="388.67529"
       cy="448.59686"
       fx="388.67529"
       fy="448.59686"
       r="98.080772" />
    <radialGradient
       inkscape:collect="always"
       xlink:href="#linearGradient3852"
       id="radialGradient3971"
       gradientUnits="userSpaceOnUse"
       gradientTransform="matrix(1.2861638,0,0,1.2098224,-67.924276,-160.95143)"
       cx="237.36151"
       cy="786.67389"
       fx="237.36151"
       fy="786.67389"
       r="188.38292" />
  </defs>
  <sodipodi:namedview
     id="base"
     pagecolor="#ffffff"
     bordercolor="#666666"
     borderopacity="1.0"
     inkscape:pageopacity="0.0"
     inkscape:pageshadow="2"
     inkscape:zoom="1"
     inkscape:cx="-29.771738"
     inkscape:cy="50.103241"
     inkscape:document-units="px"
     inkscape:current-layer="layer1"
     showgrid="false"
     inkscape:window-width="1680"
     inkscape:window-height="994"
     inkscape:window-x="-4"
     inkscape:window-y="-4"
     inkscape:window-maximized="1" />
  <metadata
     id="metadata7">
    <rdf:RDF>
      <cc:Work
         rdf:about="">
        <dc:format>image/svg+xml</dc:format>
        <dc:type
           rdf:resource="http://purl.org/dc/dcmitype/StillImage" />
        <dc:title></dc:title>
      </cc:Work>
    </rdf:RDF>
  </metadata>
  <g
     inkscape:label="Layer 1"
     inkscape:groupmode="layer"
     id="layer1"
     transform="translate(0,-988.36218)">
    <path
       style="fill:#000000;fill-opacity:1;fill-rule:nonzero;stroke:none"
       id="path2995"
       d="m -613.8438,385.70253 c -0.50425,-1.95146 -1.85949,-3.40633 -3.16155,-4.87757 -1.41016,-1.59917 -3.25236,-2.53364 -5.07401,-3.55989 -2.63894,-1.31302 -5.53335,-1.77474 -8.43122,-2.08269 -3.78248,-0.3139 -7.5807,-0.33251 -11.3736,-0.34624 -2.79662,0.0682 -5.60594,-0.11294 -8.39738,0.0933 -2.11642,0.20898 -4.14334,1.05215 -6.15262,1.73114 -2.55799,0.91427 -5.04442,1.99067 -7.53589,3.06673 -3.09045,1.46321 -6.00834,3.22297 -8.81236,5.17213 -3.94993,2.69091 -7.39016,5.96433 -10.64172,9.44409 -5.01368,5.22523 -10.03909,10.43374 -14.98451,15.72336 -3.37214,3.93337 -6.89817,7.76359 -9.80572,12.06161 -2.06044,3.4407 -2.35613,7.54954 -2.67683,11.45966 -0.27647,4.70253 -0.23886,9.41596 -0.22682,14.12441 -0.15299,6.41747 0.67987,12.77827 1.73173,19.09117 1.07108,5.95115 2.35364,11.87869 4.26762,17.62 0.86264,2.1759 1.52261,4.43608 2.60222,6.52294 0.44687,0.86379 0.9533,1.48241 1.53104,2.26992 1.49058,2.15228 3.33569,3.70675 5.82734,4.49104 3.13724,0.82962 6.32424,0.66414 9.48844,0.13265 6.27302,-1.51738 12.19264,-4.15188 18.20377,-6.44755 6.80407,-2.22499 13.69335,-4.17543 20.56148,-6.19098 3.13877,-0.7827 6.16208,-1.92482 9.22063,-2.95702 7.18197,-2.4119 10.59291,7.74494 3.41094,10.15684 l 0,0 c -3.19229,1.06517 -6.34177,2.26669 -9.61468,3.08095 -6.59696,1.93578 -13.21007,3.82025 -19.75724,5.91994 -6.70879,2.55989 -13.32097,5.51435 -20.373,7.02399 -5.13447,0.76057 -9.78611,0.88758 -14.8064,-0.65126 -0.74873,-0.28866 -1.51702,-0.53099 -2.2462,-0.86598 -3.55412,-1.6328 -6.36342,-4.36809 -8.65099,-7.48942 -1.29024,-1.85321 -1.54793,-2.08652 -2.56445,-4.07354 -1.23779,-2.41956 -2.0209,-5.03357 -3.00479,-7.55673 -2.06355,-6.27515 -3.52167,-12.72715 -4.66527,-19.2306 -1.13972,-6.88472 -2.02995,-13.82255 -1.87644,-20.81904 -0.0128,-5.01734 -0.0501,-10.04034 0.26455,-15.05045 0.49603,-5.76937 1.26893,-11.6283 4.49955,-16.59469 3.2443,-4.73325 7.06217,-9.02797 10.83315,-13.34522 4.9487,-5.29276 9.97526,-10.50645 14.99376,-15.73325 3.77971,-4.02153 7.78281,-7.805 12.35773,-10.92435 3.39353,-2.34387 6.92533,-4.46945 10.67348,-6.20425 2.76327,-1.18752 5.52112,-2.37915 8.35949,-3.38211 2.89555,-0.97056 5.80501,-2.08768 8.88188,-2.26836 3.03777,-0.17725 6.08178,-0.0915 9.12381,-0.11529 4.17414,0.0155 8.35448,0.0422 12.51548,0.41149 4.32917,0.49532 8.62307,1.32382 12.51014,3.39747 2.86882,1.61719 5.67099,3.30303 7.86211,5.82144 2.13433,2.44128 4.20721,5.0235 5.14545,8.18817 2.66016,7.09377 -7.37193,10.85581 -10.0321,3.76204 z"
       inkscape:connector-curvature="0" />
    <path
       style="fill:#000000;fill-opacity:1;fill-rule:nonzero;stroke:none"
       id="path3003"
       d="m -878.80176,381.72847 c 0.30173,-3.80035 0.99437,-7.30884 2.23479,-10.91802 1.65958,-4.37329 4.35199,-8.21888 7.22909,-11.86511 2.25489,-2.80313 5.01174,-5.04982 7.96208,-7.06716 2.36871,-1.74344 5.07888,-2.63167 7.91323,-3.272 4.34558,-0.74644 8.77006,-0.79039 13.16679,-0.86312 3.68111,-0.044 7.36255,-0.0403 11.04385,-0.0342 3.21233,-0.11236 6.28912,0.85021 9.30158,1.83908 2.71847,0.88971 5.17034,2.3997 7.70706,3.68991 3.37824,1.68706 5.59616,4.64244 7.84325,7.55357 2.4005,3.07301 4.31966,6.48537 6.18686,9.89816 2.02414,3.95148 2.49428,8.32276 2.75716,12.6827 0.0747,4.03686 0.19287,8.06459 0.44092,12.09491 0.23445,3.51731 0.37322,7.03853 0.26321,10.56224 -0.27789,5.73294 -1.82539,11.26181 -3.55137,16.69901 -1.73086,5.81269 -3.89575,11.47269 -5.99166,17.15848 -1.99846,5.29705 -4.23359,10.50914 -6.68433,15.61267 -2.55961,4.7846 -5.09082,6.98746 -11.31217,1.71665 -1.40621,-1.19136 -0.21328,-4.31532 0.23405,-5.78073 1.89486,-4.34607 5.13607,-7.87153 8.22019,-11.39986 3.21719,-3.86986 6.36433,-7.79874 9.60564,-11.65109 2.81461,-3.25494 5.87111,-6.27603 8.97428,-9.2515 1.85928,-1.72544 3.86074,-3.37216 6.26151,-4.2875 1.79078,-0.68277 2.51193,-0.71941 4.36637,-1.04253 4.16129,-0.4275 8.36637,-0.51894 12.54426,-0.32379 2.89847,0.0856 5.64011,0.86452 8.20806,2.16632 2.58446,1.45987 3.80013,4.08667 4.91122,6.68869 0.80192,2.209 1.37899,4.50103 1.77718,6.81612 0.58642,2.15414 0.82754,4.36589 0.97996,6.58618 0.13182,2.54457 0.13987,5.09339 0.14563,7.64072 8.8e-4,1.95554 -0.004,3.91107 -0.006,5.86661 -0.002,2.50417 -0.002,5.00834 -0.002,7.51251 0.11188,2.9206 -0.20756,5.82411 -0.4487,8.72929 -0.15064,2.60793 -0.20463,5.19896 -0.62283,7.78118 -0.47847,2.09393 -0.81513,4.20511 -0.96235,6.34693 -0.0459,3.23727 -0.42566,6.45055 -0.78626,9.66376 -0.45652,4.04254 -0.6095,8.10793 -0.69953,12.17221 -0.0396,4.09863 -0.39893,8.18498 -0.5838,12.27849 -0.302,3.40737 -0.0663,6.77059 0.31151,10.15503 0.22806,3.55715 0.78062,7.03235 1.65519,10.48053 0.8655,2.44161 1.9505,4.79163 3.20287,7.05753 1.3152,2.63375 3.05517,5.01354 4.93091,7.27044 2.85932,2.8827 6.04638,5.43632 9.37841,7.74912 2.82631,1.8663 5.72654,3.58957 8.81355,4.98741 3.23119,1.39051 6.75568,1.63218 10.2214,1.84999 4.95792,0.26237 9.924,0.0538 14.76352,-1.12955 1.22477,-0.29947 2.42352,-0.69678 3.63527,-1.04517 4.31868,-1.40394 8.6189,-2.9168 12.71573,-4.89241 3.87965,-1.87089 7.5635,-4.17318 11.26706,-6.36146 7.00746,-4.11343 13.48893,-8.9878 19.74912,-14.14705 2.66271,-2.26299 5.2212,-4.63875 7.94012,-6.83462 5.90362,-4.74817 12.61855,3.60082 6.71493,8.34899 l 0,0 c -2.69731,2.15805 -5.19227,4.54746 -7.8462,6.7582 -6.69405,5.50301 -13.62203,10.70727 -21.10856,15.09944 -4.08023,2.40977 -8.14005,4.9061 -12.42114,6.9521 -4.54599,2.1726 -9.30946,3.85025 -14.09982,5.388 -1.49722,0.41646 -2.9794,0.89136 -4.49166,1.24937 -5.73954,1.35877 -11.63623,1.61756 -17.50723,1.30628 -4.77522,-0.31406 -9.58203,-0.81512 -13.99972,-2.80352 -3.66508,-1.69695 -7.15484,-3.70319 -10.50608,-5.95937 -4.0949,-2.90274 -8.07677,-6.01594 -11.4948,-9.71119 -2.27986,-2.79498 -4.43493,-5.70674 -6.05927,-8.94157 -1.6578,-3.06383 -3.1492,-6.22659 -4.18477,-9.56051 -0.99214,-3.92271 -1.64413,-7.88238 -1.91721,-11.9244 -0.43801,-3.93785 -0.68523,-7.86516 -0.36643,-11.8267 0.18241,-4.01152 0.53205,-8.01614 0.57548,-12.03239 0.0985,-4.38371 0.2702,-8.76829 0.76372,-13.12833 0.3448,-3.07131 0.70733,-6.14049 0.74686,-9.23511 0.18423,-2.49259 0.52633,-4.96317 1.09063,-7.40061 0.43656,-2.25594 0.2565,-4.56794 0.50386,-6.8478 0.21697,-2.61119 0.52544,-5.21789 0.41194,-7.84341 2.1e-4,-2.50759 4.1e-4,-5.01518 0.002,-7.52277 0.002,-1.94383 0.007,-3.88767 0.006,-5.83151 -0.005,-2.31785 -0.0109,-4.63694 -0.12197,-6.95264 -0.11951,-1.87118 -0.36585,-3.71002 -0.85595,-5.52532 -0.24207,-1.50365 -0.63614,-2.97745 -1.0848,-4.43018 -0.34348,-0.83534 -0.19325,-0.50307 -0.61587,-1.38096 -0.50357,-1.04604 0.0613,-0.0888 0.42994,-0.0706 -1.0848,-0.5193 -2.32184,-0.87679 -3.60117,-0.86174 -3.42945,-0.19276 -6.8828,-0.0565 -10.30525,0.20226 -2.43773,0.32228 -3.02755,0.67422 -4.90974,2.4848 -2.82809,2.71138 -5.62179,5.45509 -8.19204,8.4169 -3.28572,3.90273 -6.47114,7.88636 -9.73651,11.80366 -2.18074,2.49423 -4.4383,4.95784 -6.14782,7.8121 -0.71339,1.11396 0.9396,-1.35302 -0.71316,-2.3185 -6.43371,-3.75832 -5.84574,-3.39443 -8.67499,-0.66314 -0.059,0.0569 0.1129,-0.11879 0.16935,-0.17819 0.16903,-0.29785 0.33805,-0.5957 0.50708,-0.89354 2.31923,-4.78602 4.3902,-9.69724 6.28275,-14.66626 2.04141,-5.53378 4.15302,-11.04122 5.83435,-16.70023 1.43685,-4.5036 2.78163,-9.07181 3.05338,-13.82134 0.12499,-3.17955 -0.0599,-6.35906 -0.24942,-9.53338 -0.24835,-4.04043 -0.38136,-8.07902 -0.44281,-12.12623 -0.15641,-2.77092 -0.30177,-5.59775 -1.46088,-8.16696 -1.59828,-2.92192 -3.21537,-5.86086 -5.26865,-8.49354 -1.27557,-1.65252 -2.37652,-3.50228 -4.23696,-4.55948 -2.04106,-1.04673 -4.01629,-2.27055 -6.17542,-3.05157 -1.9379,-0.63697 -3.90625,-1.40057 -5.97577,-1.30404 -3.61677,-0.006 -7.23367,-0.01 -10.85026,0.0328 -3.6918,0.0601 -7.4025,0.0882 -11.06348,0.61934 -1.53449,0.31183 -2.87993,0.67009 -4.14492,1.64737 -2.05912,1.40794 -4.02781,2.90954 -5.60897,4.873 -2.15872,2.71606 -4.2353,5.55813 -5.53327,8.8007 -1.04356,2.78229 -1.42383,5.712 -1.69965,8.6611 -0.9397,7.51764 -11.57125,6.1887 -10.63155,-1.32894 z"
       inkscape:connector-curvature="0" />
    <path
       style="fill:#000000;fill-opacity:1;fill-rule:nonzero;stroke:none"
       id="path3013"
       d="m -1073.7731,653.46437 c 1.9219,-2.77845 4.0697,-5.39426 6.2697,-7.95556 2.6428,-2.51329 5.2249,-5.09579 7.9497,-7.52207 2.6529,-2.35545 5.6944,-4.15938 8.8618,-5.72007 2.2118,-1.18358 4.5996,-1.94398 6.9782,-2.70623 2.4907,-0.82249 5.1044,-1.00298 7.7056,-1.09756 4.0739,-0.28416 7.9038,1.20867 11.6134,2.68858 5.0063,1.88686 9.2964,5.13975 13.5728,8.27327 4.4488,3.42834 8.7635,7.03349 12.85427,10.88306 2.52823,2.3212 5.17273,4.56818 7.44491,7.15202 1.61287,1.83409 1.98471,2.4614 3.36292,4.40608 2.84393,3.94713 4.5197,8.43742 5.79104,13.08628 1.39462,6.15405 1.52948,12.48519 1.67501,18.7649 0.11449,5.70568 0.17476,11.43777 -0.69134,17.09613 -0.20097,1.31296 -0.48523,2.61181 -0.72785,3.91772 -1.95279,7.43385 -4.47331,14.71762 -7.10209,21.93733 -2.28923,6.32185 -4.97677,12.48648 -7.57786,18.68314 -1.16003,3.4915 -2.86808,6.75383 -4.26931,10.14471 2.52052,-5.45276 -0.2156,0.62877 -14.5531,-9.53989 -0.2286,-0.16211 0.3436,-0.44303 0.5047,-0.67228 0.4482,-0.63763 1.3667,-2.07171 1.7281,-2.60525 0.4751,-0.70131 0.9644,-1.39293 1.4466,-2.0894 3.3594,-4.98105 7.4424,-9.40373 11.79514,-13.52201 3.80661,-3.39971 7.87992,-6.40119 12.33588,-8.88296 4.31167,-2.25053 9.01818,-3.21276 13.80716,-3.72689 5.24151,-0.38014 10.50216,-0.33517 15.75404,-0.33855 5.16629,-0.14908 10.27232,0.52531 15.15848,2.19006 3.49535,1.48661 6.34931,3.80481 8.94431,6.52366 2.45601,3.02947 4.72086,6.22749 6.87368,9.47972 3.13849,4.20967 5.5765,8.63942 7.44803,13.53746 1.80346,5.5614 1.93069,11.42898 2.05067,17.21766 0.0588,4.68141 0.0255,9.3633 0.007,14.04486 0.13013,4.46731 -0.20706,8.90985 -0.71475,13.34278 -0.65994,3.79516 -0.98716,7.62946 -1.40764,11.45396 -0.27667,4.00509 -1.30272,7.85828 -2.4062,11.6964 -1.22221,3.69386 -2.61652,7.3298 -4.18675,10.88953 -1.06141,2.746 -2.22966,5.45016 -3.4569,8.12523 -1.25514,2.61795 -2.03384,5.41223 -2.94161,8.15927 -1.3337,3.94108 -2.8592,7.82176 -4.42728,11.67652 -1.43771,3.52073 -2.85386,7.04926 -4.09246,10.646 -1.21606,3.61335 -2.6221,7.16119 -3.81797,10.78074 -0.91532,3.22885 -1.92173,6.44707 -2.65348,9.72504 -0.57061,2.90993 -0.9781,5.84525 -1.46965,8.76885 -0.42055,2.5569 -0.49884,5.1523 -0.56053,7.73767 -0.0535,3.42074 -0.0435,6.84209 -0.0409,10.26314 -0.0959,3.41923 0.0829,6.82373 0.31139,10.23297 0.2528,2.40603 1.08389,4.73049 1.99129,6.96278 1.04632,2.40239 2.22617,4.73744 3.38405,7.09047 0.99386,2.19154 2.59579,3.93214 4.17997,5.6979 1.4653,1.22452 2.81452,2.60545 4.35973,3.73331 0.7941,0.57961 1.66059,1.05293 2.48665,1.586 2.83465,1.74835 5.81349,3.20936 8.97516,4.24945 5.97643,1.54997 12.22468,1.64934 18.36132,1.88149 8.20015,0.34904 16.40052,0.1237 24.59945,-0.0997 9.23999,-0.0953 18.45993,-0.89702 27.62025,-2.07355 8.64664,-1.10768 16.99144,-3.65171 25.27037,-6.28241 7.4169,-2.41227 14.70533,-5.24541 21.70637,-8.6863 4.74771,-2.3728 9.44236,-4.91609 13.83309,-7.90587 4.15644,-3.07261 8.19213,-6.30706 12.1807,-9.59446 3.91456,-3.16328 7.77355,-6.3914 11.59938,-9.66099 4.24585,-3.69753 8.40517,-7.49377 12.66768,-11.1722 2.53833,-2.24737 4.87522,-4.70039 7.38469,-6.97951 1.30449,-1.14035 0.67753,-0.59427 1.88042,-1.63876 9.5344,-8.27853 21.242,5.20515 11.7076,13.48368 l 0,0 c -1.09561,0.95125 -0.55341,0.47985 -1.62665,1.41416 -2.62904,2.34607 -4.99862,4.9616 -7.68634,7.24555 -4.28589,3.69044 -8.45326,7.51655 -12.72596,11.22221 -3.90811,3.33991 -7.85004,6.63766 -11.84816,9.86971 -4.44084,3.65519 -8.92731,7.26304 -13.58465,10.63965 -5.10009,3.38722 -10.43208,6.42807 -15.93395,9.11706 -7.80215,3.8029 -15.88826,7.00314 -24.1504,9.66595 -9.30539,2.95222 -18.69779,5.74767 -28.41567,6.97627 -9.75018,1.23501 -19.55866,2.1085 -29.39231,2.21032 -8.58838,0.23403 -17.17865,0.45768 -25.76809,0.0933 -7.84905,-0.30296 -15.82582,-0.53945 -23.40447,-2.81117 -4.54053,-1.5637 -8.88137,-3.59212 -12.94497,-6.16782 -3.76753,-2.43959 -7.31711,-5.15572 -10.44556,-8.39318 -2.67802,-2.98738 -5.20412,-6.09883 -6.92013,-9.7605 -1.35419,-2.771 -2.74817,-5.52216 -3.9478,-8.36401 -1.55365,-3.97191 -2.89126,-8.07396 -3.21026,-12.35511 -0.25458,-3.8015 -0.44265,-7.60149 -0.35133,-11.41338 -0.003,-3.57177 -0.0132,-7.14388 0.0463,-10.71529 0.0864,-3.43053 0.22909,-6.86979 0.80233,-10.25981 0.54901,-3.26499 1.00031,-6.54489 1.67185,-9.78881 0.89017,-3.83256 2.00554,-7.6163 3.11942,-11.38792 1.2313,-3.67338 2.62388,-7.29045 3.87757,-10.95659 1.34665,-3.90289 2.87871,-7.73447 4.43472,-11.55742 1.4193,-3.48601 2.81206,-6.99064 4.01436,-10.55591 1.12683,-3.39905 2.13968,-6.84195 3.70203,-10.07754 1.21751,-2.55698 2.25549,-5.19796 3.31918,-7.82163 1.24983,-2.81406 2.33846,-5.69322 3.35514,-8.59902 0.82612,-2.87281 1.66882,-5.72252 1.82011,-8.73426 0.43292,-3.84314 0.73914,-7.70167 1.41452,-11.51486 0.43382,-3.78191 0.7354,-7.56668 0.59873,-11.37982 0.0179,-4.53759 0.0501,-9.07549 -0.004,-13.61295 -0.075,-3.80626 -0.0675,-7.67095 -0.94963,-11.39581 -1.24528,-3.6442 -3.42299,-6.83393 -5.64345,-9.9515 -1.51817,-2.37299 -3.26736,-4.59004 -4.84529,-6.9216 -0.77261,-0.80997 -0.6602,-0.92124 -1.56939,-1.564 -0.24234,-0.17132 -0.5448,-0.26417 -0.75206,-0.47659 -0.0686,-0.0703 0.19644,0.005 0.29466,0.008 -2.87104,-1.17069 -6.09701,-1.12819 -9.14527,-1.15119 -4.64823,0.003 -9.30242,-0.0348 -13.94426,0.24546 -2.40237,0.22751 -4.77221,0.57722 -6.99044,1.59187 -3.1713,1.73243 -6.01009,3.88868 -8.73835,6.26067 -3.46896,3.23791 -6.69949,6.75125 -9.35872,10.69454 -1.25589,1.80554 -2.4242,3.67706 -3.72768,5.44881 -0.35301,0.47986 -0.54911,1.62174 -1.10411,1.40532 -16.7134,-6.51666 -17.7705,-2.54051 -15.4488,-8.99688 1.4247,-3.39896 3.1098,-6.68431 4.2868,-10.1867 2.492,-5.93515 5.0715,-11.83775 7.2676,-17.89172 2.3102,-6.31662 4.4716,-12.6994 6.33644,-19.16172 0.49423,-2.50007 0.66038,-3.01928 0.90869,-5.55746 0.38052,-3.88959 0.24073,-7.80217 0.19904,-11.70192 -0.11087,-4.89533 -0.16513,-9.83068 -1.0983,-14.6546 -0.62803,-2.65076 -1.57267,-5.14016 -3.15577,-7.38164 -0.5568,-0.81841 -1.0721,-1.62479 -1.7153,-2.38024 -2.0035,-2.35293 -4.4644,-4.29834 -6.7037,-6.41073 -3.5491,-3.35565 -7.3113,-6.47601 -11.1642,-9.47536 -3.0767,-2.25932 -6.1132,-4.73447 -9.7071,-6.11804 -1.7364,-0.71799 -0.9392,-0.41766 -2.7205,-1.03641 -2.498,-0.8677 1.331,-0.0712 -1.586,-0.35969 -0.9641,0.0299 -1.954,5.8e-4 -2.8894,0.26329 -1.5407,0.48829 -3.0987,0.92935 -4.5223,1.71672 -1.7306,0.84987 -3.4338,1.75518 -4.8874,3.04914 -2.1368,1.89103 -4.094,3.96606 -6.2698,5.81555 -1.9445,2.25632 -3.8371,4.56554 -5.5214,7.02439 -7.5761,10.10152 -21.8618,-0.61277 -14.2857,-10.71429 z"
       inkscape:connector-curvature="0" />
    <path
       style="fill:#000000;fill-opacity:1;fill-rule:nonzero;stroke:none"
       id="path3015"
       d="m -764.5225,719.05105 c -1.40562,-2.67845 0.12663,0.28716 -1.31113,-2.65281 -0.0994,-0.20337 -0.201,-0.40668 -0.32261,-0.59763 -0.0172,-0.027 -0.0962,-0.0736 -0.0857,-0.0434 0.12603,0.36247 0.4381,0.63685 0.67848,0.911 0.36615,0.66379 1.15782,0.66653 1.68342,1.07531 0.0523,0.0407 -0.1263,0.0487 -0.1925,0.0489 -0.36855,9.9e-4 -0.73633,-0.0344 -1.10472,-0.0454 -1.69387,-0.0504 -2.38179,-0.0462 -4.17948,-0.063 -5.52062,-0.0192 -11.0413,0.005 -16.56192,0.0192 -2.98855,0.008 -5.97711,0.0137 -8.96567,0.0156 -2.26561,-0.13806 -4.4681,0.0593 -6.69661,0.41676 -2.63578,0.47442 -5.11749,1.48412 -7.59489,2.46334 -2.15057,1.0051 -4.23499,2.1458 -6.1134,3.602 -2.54235,2.17071 -5.14886,4.26057 -7.70008,6.4225 -2.85439,2.528 -5.43676,5.34274 -8.17702,7.99447 -3.91955,3.81668 -7.88269,7.58829 -11.80439,11.40235 -3.07357,2.98421 -5.84016,6.29531 -8.3451,9.76838 -2.66434,3.35111 -4.83818,7.00878 -6.90242,10.74582 -2.4434,4.20369 -4.46183,8.62869 -6.44234,13.06277 -1.84184,4.03279 -3.16414,8.2277 -4.17672,12.53358 -1.31429,5.96523 -1.93915,12.05007 -2.84932,18.08345 -1.11749,6.61437 -2.06821,13.25411 -2.9125,19.90828 -0.94155,7.76838 -1.20337,15.59501 -1.38272,23.41122 -0.11737,6.60372 -0.1119,13.2087 -0.10792,19.8132 0.23002,5.2404 -0.49258,10.56929 0.4789,15.75273 1.00565,4.05894 3.65272,7.35512 6.02875,10.69435 3.3006,4.57788 6.55644,9.20327 10.49466,13.261 1.99776,2.21209 3.81562,2.72498 6.50135,3.51829 2.95229,0.62152 5.99013,0.64441 8.99425,0.70801 3.65151,-0.18123 7.40737,0.44403 11.02905,-0.18524 0.0888,-0.0435 0.17769,-0.0869 0.26653,-0.13041 12.23786,-3.11023 16.63639,14.19672 4.39853,17.30695 l 0,0 c -0.77058,0.17495 -1.54116,0.3499 -2.31173,0.52485 -4.57476,0.54356 -9.17333,0.38092 -13.77317,0.33671 -4.5979,-0.10349 -9.23944,-0.24168 -13.70753,-1.44871 -1.46098,-0.43886 -3.03187,-0.8811 -4.43314,-1.4599 -3.74814,-1.54821 -7.01961,-3.9286 -9.85321,-6.81136 -4.49687,-4.72895 -8.4006,-9.94005 -12.15744,-15.27027 -4.08279,-5.74264 -7.75208,-11.10621 -9.10514,-18.19425 -0.16835,-1.12948 -0.38683,-2.25261 -0.50503,-3.38842 -0.5249,-5.04391 -0.006,-10.14759 -0.20277,-15.2036 -0.004,-6.74537 -0.009,-13.49123 0.11267,-20.23577 0.19547,-8.43025 0.49411,-16.87062 1.52011,-25.24802 0.86277,-6.79425 1.82998,-13.57451 2.97088,-20.32824 0.98776,-6.5222 1.65866,-13.10213 3.13221,-19.54173 1.2889,-5.3834 2.94884,-10.64316 5.24657,-15.69099 2.18841,-4.89685 4.43319,-9.77632 7.12163,-14.42427 2.42841,-4.38191 5.00103,-8.67246 8.09962,-12.62277 3.13405,-4.26433 6.50801,-8.3776 10.32685,-12.05125 3.93424,-3.82128 7.90321,-7.60684 11.83451,-11.43154 3.02594,-2.92592 5.86223,-6.04906 9.05903,-8.79257 2.8154,-2.37849 5.67438,-4.69593 8.50022,-7.06098 3.19416,-2.36663 6.62308,-4.38024 10.28738,-5.93941 3.68803,-1.45545 7.41825,-2.84574 11.34991,-3.49011 3.14898,-0.4973 6.29816,-0.77595 9.48919,-0.63833 2.97667,-0.002 5.95334,-0.007 8.93001,-0.0156 5.59478,-0.0149 11.18963,-0.0392 16.78442,-0.0184 5.09899,0.052 10.34516,-0.18637 14.73146,2.86287 0.57856,0.51555 1.1982,0.98841 1.73569,1.54665 1.64972,1.71342 2.71071,3.82248 3.69634,5.95419 6.2647,10.96323 -9.23964,19.82285 -15.50434,8.85963 z"
       inkscape:connector-curvature="0" />
    <g
       id="g3041"
       transform="matrix(0.31362614,0,0,0.31362614,659.03834,402.90094)">
      <path
         inkscape:connector-curvature="0"
         d="m 798.56873,668.67372 c 3.84457,-5.79335 8.33806,-11.09785 12.68343,-16.50989 3.65389,-5.43202 8.21581,-10.07163 13.19215,-14.28069 5.27321,-4.02377 11.2798,-6.96295 17.44196,-9.34763 5.80472,-1.87555 11.69336,-3.57407 17.34746,-5.88321 7.78914,-3.08955 16.04497,-4.51463 24.27526,-5.82763 11.71666,-1.78917 23.59895,-1.95278 35.42531,-2.18221 12.61391,-0.18052 25.22957,-0.16612 37.84446,-0.1617 8.80204,-0.009 17.59415,-0.14391 26.37839,0.47284 8.74091,1.19099 17.32875,4.77375 23.46855,11.3075 1.4096,1.50003 2.4969,3.27317 3.7453,4.90976 3.3728,5.55574 6.3902,11.30825 8.9767,17.26827 2.3151,6.3306 5.0251,12.49096 7.6555,18.69347 2.9378,7.58682 5.1872,15.41842 6.773,23.39351 1.232,7.88566 0.031,15.80955 -1.4734,23.56093 -2.1675,7.69659 -4.0783,15.48403 -6.5042,23.10497 -2.4347,8.0172 -5.3558,15.87879 -8.8339,23.49931 -3.5351,8.30136 -6.6919,16.76358 -9.6992,25.26993 -2.9859,7.01048 -5.4646,14.18007 -7.49517,21.515 -1.68045,5.70753 -3.31444,11.43247 -5.3585,17.02254 -0.52469,1.09842 -0.41456,3.66593 -1.57405,3.29527 -11.31061,-3.61571 -22.27189,-8.47529 -32.65468,-14.23731 -1.0004,-0.55519 0.7654,-2.15815 1.21654,-3.20958 1.63991,-3.82191 3.85741,-7.25643 6.13154,-10.71934 5.73264,-7.73514 12.2347,-14.8114 19.06772,-21.57535 5.66229,-5.88554 11.7001,-11.38218 18.1455,-16.39432 4.8909,-3.75115 10.4721,-6.35491 15.9791,-9.04191 6.5072,-3.24844 13.5215,-5.22239 20.5388,-7.01441 8.5683,-2.04216 17.4099,-2.25134 26.1725,-2.46014 8.6426,-0.26715 17.2652,-0.1769 25.8518,0.87493 8.3842,1.16663 16.145,4.59314 23.721,8.19449 6.7609,3.20576 12.6574,7.80431 18.3751,12.55898 4.8834,4.26178 9.7813,8.48087 14.3806,13.07515 6.5253,6.42697 12.4049,13.40483 17.4549,21.03978 4.5343,6.57715 7.7745,13.87416 10.385,21.38871 2.1663,5.72284 3.4374,11.68029 4.1467,17.74109 0.4686,5.2729 0.4312,10.57186 0.4313,15.86029 -0.011,4.69512 -0.025,9.39023 -0.032,14.08536 0.417,7.44867 -0.8694,14.74577 -2.2207,22.03113 -2.2238,9.03771 -4.9733,17.93382 -7.3416,26.93656 -2.5362,9.96482 -4.113,20.12652 -6.3332,30.1572 -2.6417,11.05552 -6.2149,21.85193 -10.188,32.49095 -3.4585,9.38063 -7.3358,18.59203 -10.7372,27.99258 -2.5954,6.5926 -4.4492,13.4272 -5.7954,20.3738 -1.2988,10.4329 -1.756,20.9677 -2.2976,31.4649 -0.5463,11.6717 -0.7026,23.3562 -0.7891,35.0388 0.06,7.7501 0.6691,15.4254 1.95,23.0607 0.3584,4.6244 1.5062,8.915 3.051,13.2279 1.3711,2.6189 2.317,5.436 3.6496,8.0728 0.7041,1.2315 1.0014,2.6582 1.6508,3.9177 0.054,0.1058 0.2684,0.3799 0.2399,0.2644 -0.4112,-1.6654 -0.6546,-1.1183 1.1239,0.2537 4.8927,3.1561 10.0713,5.8483 15.398,8.1898 6.8027,2.9218 13.2829,6.5683 20.478,8.4329 8.9827,1.6236 18.158,1.6439 27.2561,1.7883 10.5134,0.3505 21.0071,-0.3603 31.5043,-0.8124 7.6407,-0.2878 15.1293,-2.0057 22.4018,-4.2779 6.2048,-2.7987 12.5057,-5.4515 18.6232,-8.4556 4.6213,-2.1352 8.7516,-5.0629 12.8741,-8.0101 5.2328,-3.8965 10.4833,-7.7526 15.3199,-12.1396 3.2515,-2.9795 5.4972,-6.7396 8.2497,-10.1362 1.8546,-2.7419 4.1045,-5.2325 6.2438,-7.7676 3.4875,-3.9146 7.3867,-7.4136 11.2095,-10.9898 3.2181,-3.5684 6.4698,-7.0939 9.7894,-10.5723 5.0987,-4.736 10.7334,-8.8492 16.3545,-12.9355 4.1344,-3.0692 8.1812,-6.3139 11.7449,-10.0407 3.7183,-3.4939 6.9467,-7.4471 10.3001,-11.2761 1.6144,-1.9676 0.6617,-0.8462 2.9007,-3.3276 17.0631,-18.6174 43.3921,5.5134 26.329,24.1308 l 0,0 c -1.3461,1.4084 -0.4973,0.4866 -2.4623,2.8404 -3.8253,4.2645 -7.4025,8.7693 -11.611,12.682 -5.0305,5.0403 -10.4175,9.7141 -16.2013,13.8789 -3.8957,2.8321 -7.733,5.7298 -11.518,8.7051 -3.7883,3.9695 -7.4224,8.0484 -11.2308,11.9992 -2.799,2.6171 -5.6736,5.161 -8.3107,7.9392 -2.1565,2.5553 -4.3507,5.0538 -6.2716,7.8004 -0.7135,0.3424 -0.1132,0.023 -1.2246,1.5917 -0.7567,1.0679 -1.476,2.1634 -2.2738,3.201 -2.4405,3.1743 -5.2737,6.0184 -8.1221,8.8199 -5.8769,5.2631 -12.14,10.0262 -18.4992,14.689 -5.7342,4.0709 -11.5543,8.0386 -17.9479,11.0244 -3.5133,1.702 -7.0696,3.2548 -10.6329,4.8454 -2.7877,1.2444 -5.4963,2.6659 -8.3121,3.8454 -1.583,0.6631 -3.2169,1.1971 -4.8254,1.7957 -10.1997,3.1007 -20.668,5.4287 -31.3617,5.8218 -11.2002,0.4815 -22.3981,1.2081 -33.6153,0.8408 -12.1291,-0.1984 -24.3785,-0.3315 -36.2558,-3.0914 -1.7876,-0.5152 -3.5956,-0.9643 -5.3628,-1.5458 -6.9523,-2.2876 -13.3783,-5.8541 -20.1072,-8.6854 -8.4391,-3.8104 -16.7738,-8.0508 -24.1294,-13.7302 -5.0269,-4.4615 -9.8739,-9.465 -11.9194,-16.0625 -1.7806,-3.7828 -3.3987,-7.6383 -5.0684,-11.471 -2.2603,-6.3104 -3.9506,-12.709 -4.6563,-19.3962 -1.6039,-9.6656 -2.388,-19.3964 -2.4355,-29.2008 0.091,-12.2094 0.2593,-24.4206 0.8358,-36.6184 0.6327,-12.2026 1.1203,-24.466 2.9306,-36.5596 1.7512,-8.7071 4.0072,-17.3067 7.2478,-25.5918 3.4476,-9.51776 7.3472,-18.85425 10.8672,-28.34575 3.4095,-9.10093 6.4862,-18.33016 8.7874,-27.78128 2.3731,-10.44826 3.9161,-21.0771 6.6484,-31.45183 2.1484,-8.14882 4.5268,-16.23157 6.7629,-24.35384 0.9591,-5.17144 2.0646,-10.26397 1.6218,-15.56845 0.01,-4.6788 0.02,-9.35758 0.031,-14.03638 4e-4,-3.99074 0.036,-7.98692 -0.2191,-11.97159 -0.3222,-3.54262 -1.237,-6.95156 -2.5065,-10.27569 -1.4377,-4.71594 -3.6954,-9.16575 -6.4481,-13.24764 -3.5765,-5.647 -8.1135,-10.55361 -12.8019,-15.29791 -3.8118,-3.82974 -7.8619,-7.37408 -11.9683,-10.87092 -3.4836,-2.90882 -6.964,-5.88484 -11.0884,-7.85859 -4.0601,-2.04042 -8.2914,-3.99822 -12.7611,-4.9196 -6.7585,-0.98616 -13.5973,-0.64032 -20.4043,-0.58549 -6.1121,0.13963 -12.2983,0.15648 -18.309,1.39455 -4.6294,1.13046 -9.276,2.37721 -13.5758,4.47291 -3.3412,1.6302 -6.7775,3.08746 -9.8299,5.22571 -5.3489,4.06866 -10.194,8.73769 -14.8808,13.54469 -5.1378,5.03935 -9.9747,10.31678 -14.43566,15.96827 -0.99229,1.44177 -1.80854,3.03681 -2.80151,4.46219 -0.0469,0.0673 0.0758,-0.21616 -5.4e-4,-0.24594 -33.39314,-13.02079 -29.08851,-23.77115 -33.506,-11.5987 1.76325,-4.6104 2.94743,-9.42198 4.42201,-14.12721 2.25357,-8.13176 4.9195,-16.12268 8.24263,-23.88871 3.37713,-9.547 6.9294,-19.04498 10.94859,-28.34133 2.97714,-6.32333 5.23845,-12.95375 7.31036,-19.62214 2.1626,-6.28386 3.42877,-12.87066 5.46747,-19.19984 0.731,-3.12668 1.03814,-6.34372 1.40257,-9.52174 -1.05207,-5.55747 -2.68624,-10.98138 -4.60325,-16.29961 -2.62727,-6.20271 -5.35271,-12.36054 -7.65581,-18.69441 -1.55842,-3.89051 -3.7227,-7.49309 -5.67311,-11.19012 0.0194,0.0131 1.74057,1.24607 1.78906,0.98031 0.0706,-0.38709 -1.51394,-0.78576 -1.63475,-1.16864 -0.0499,-0.15822 0.58548,0.006 0.48206,-0.12388 -0.1804,-0.22632 -0.54428,-0.19704 -0.81642,-0.29557 -7.93798,-0.57998 -15.89016,-0.33665 -23.84517,-0.38199 -12.38141,-0.004 -24.76356,-0.019 -37.14403,0.15508 -10.17327,0.19452 -20.40163,0.27224 -30.48904,1.74321 -5.61557,0.89511 -11.29272,1.68745 -16.63819,3.71994 -5.87803,2.32084 -11.89659,4.31137 -17.94621,6.11642 -2.54915,0.9246 -4.99898,2.14033 -7.30587,3.44409 -3.25484,2.56432 -5.81167,5.76083 -8.15789,9.16958 -3.46849,4.3084 -7.04476,8.53074 -10.23062,13.05889 -13.3845,21.41519 -43.67015,2.48666 -30.28565,-18.92853 z"
         id="path3029"
         style="fill:#000000;fill-opacity:1;fill-rule:nonzero;stroke:none" />
      <path
         inkscape:connector-curvature="0"
         d="m 1404.9192,823.9638 c -0.8353,-0.57469 -1.6101,-1.58553 -2.6187,-1.89198 -0.09,-0.0273 0.1834,0.24399 0.092,0.2659 -0.4676,0.1123 -0.9466,-0.17162 -1.4231,-0.23616 -4.5969,-0.51702 -9.2376,-0.48323 -13.8573,-0.51093 -5.6474,0.22924 -11.3572,-0.35374 -16.9902,0.16859 -4.9859,0.45368 -9.964,0.60688 -14.8239,1.87973 -6.2133,1.22739 -12.1343,3.41518 -18.0057,5.73447 -6.7511,2.71484 -13.4926,5.40307 -20.1579,8.32522 -5.5548,3.25842 -10.7576,7.10194 -16.099,10.70079 -6.2325,4.61396 -11.5196,10.3364 -17.0831,15.70662 -6.5115,5.9632 -12.4355,12.49343 -18.2808,19.09621 -6.6595,7.54955 -13.6519,14.81961 -19.8473,22.76284 -4.3379,5.84008 -8.4611,11.78696 -12.0946,18.08647 -2.7087,4.70173 -4.8387,9.6769 -7.5234,14.39088 -2.3798,4.36629 -4.2458,8.98738 -6.2356,13.54282 -1.7525,5.65821 -3.7708,11.26813 -5.5371,16.93745 -2.0269,6.20146 -3.4395,12.59148 -4.7536,18.97685 -1.1984,7.71335 -2.7915,15.35703 -4.4306,22.98653 -1.0104,4.5537 -1.4242,9.202 -1.6089,13.8532 0.054,5.3419 -0.3102,10.6495 -0.827,15.9623 -0.4222,4.5795 -0.5455,9.1798 -0.6297,13.7759 -0.067,4.9373 -0.052,9.8752 -0.05,14.8128 0,5.2886 0.01,10.5772 0.01,15.8658 2e-4,0.6412 4e-4,1.2824 5e-4,1.9237 3e-4,1.2373 0.4153,5.9295 0.4948,4.0607 -0.073,-0.338 -0.4103,-1.301 -0.2178,-1.0139 0.2198,0.3278 1.481,3.9476 1.497,3.9905 0.364,0.9745 0.9398,1.9626 1.3817,2.8867 1.3796,2.9236 2.9173,5.7675 4.3884,8.6474 0.4626,0.7766 0.8417,1.6019 1.3151,2.3721 0.038,0.061 0.1953,0.1983 0.1706,0.131 -0.084,-0.2296 -0.5532,-0.7866 -0.357,-0.6406 0.6979,0.5192 1.2831,1.6557 0.8863,0.9113 -0.2916,-0.276 -0.5602,-0.5784 -0.8747,-0.8278 -1.1659,-0.9248 -2.4416,-1.4319 0.5172,0.093 0.098,0.05 0.2029,0.084 0.3043,0.1261 -0.7709,-0.3182 -1.5418,-0.6365 -2.3127,-0.9547 24.4146,6.4561 15.2842,40.9836 -9.1304,34.5274 l 0,0 c -4.6826,-1.6262 -9.0917,-3.4951 -12.8665,-6.8492 -3.8322,-3.7554 -7.2521,-7.8691 -9.5266,-12.7784 -1.5481,-3.1346 -3.2205,-6.2078 -4.7365,-9.3554 -1.9535,-4.0895 -3.6434,-8.2671 -5.0779,-12.5694 -1.0584,-4.8214 -1.7888,-9.7113 -1.5701,-14.6678 0,-5.289 0,-10.578 -0.01,-15.867 0,-5.1625 -0.017,-10.3254 0.056,-15.4875 0.104,-5.5292 0.2709,-11.0624 0.7913,-16.5706 0.4549,-4.6756 0.754,-9.3282 0.6919,-14.0334 0.2997,-6.6578 0.9281,-13.3068 2.373,-19.8257 1.6214,-7.54649 3.1719,-15.10822 4.3773,-22.73431 1.5775,-7.56545 3.2656,-15.13329 5.6689,-22.48525 1.0797,-3.38525 2.2775,-6.7194 3.3768,-10.09713 0.7785,-2.3918 1.4078,-4.83153 2.2237,-7.21082 0.3764,-1.09758 0.8615,-2.15482 1.2922,-3.23223 2.559,-5.80338 4.9368,-11.70625 8.1074,-17.21362 2.8466,-4.516 4.449,-9.75293 7.4221,-14.21664 4.4928,-7.77501 9.573,-15.14199 14.9646,-22.324 6.6856,-8.43228 13.978,-16.33955 21.1666,-24.34236 6.4646,-7.30114 13.0392,-14.50329 20.218,-21.11869 7.0602,-6.81426 13.8227,-14.02186 21.9319,-19.62978 7.1183,-4.79467 14.0029,-10.03782 21.7463,-13.80431 7.0932,-3.09407 14.2639,-5.96837 21.4414,-8.85687 7.3847,-2.87351 14.8432,-5.59922 22.6279,-7.19146 6.861,-1.59754 13.7848,-2.36079 20.8095,-2.80011 6.5357,-0.37901 13.0838,-0.21606 19.6288,-0.24968 7.3887,0.0478 14.8471,0.0125 22.1142,1.53159 8.1067,2.14998 14.7528,5.27785 20.7234,11.30136 17.8572,17.85714 -7.3966,43.11095 -25.2538,25.25381 z"
         id="path3039"
         style="fill:#000000;fill-opacity:1;fill-rule:nonzero;stroke:none" />
    </g>
    <g
       id="g3935">
      <path
         sodipodi:type="arc"
         style="fill:url(#radialGradient3947);fill-opacity:1;fill-rule:evenodd;stroke:url(#linearGradient3949);stroke-width:6.07848454;stroke-linecap:butt;stroke-linejoin:miter;stroke-miterlimit:4;stroke-opacity:1;stroke-dasharray:none"
         id="path3937"
         sodipodi:cx="287.14285"
         sodipodi:cy="336.64789"
         sodipodi:rx="191.42857"
         sodipodi:ry="191.42857"
         d="m 478.57143,336.64789 a 191.42857,191.42857 0 1 1 -382.857151,0 191.42857,191.42857 0 1 1 382.857151,0 z"
         transform="matrix(0.16451469,0,0,0.16451469,-15.239218,964.97866)" />
      <path
         sodipodi:type="arc"
         style="opacity:0.75887888;fill:url(#linearGradient3951);fill-opacity:1;stroke:none"
         id="path3939"
         sodipodi:cx="281.32748"
         sodipodi:cy="-535.02045"
         sodipodi:rx="89.398499"
         sodipodi:ry="66.670067"
         d="m 370.72598,-535.02045 a 89.398499,66.670067 0 1 1 -178.79699,0 89.398499,66.670067 0 1 1 178.79699,0 z"
         transform="matrix(0.25106388,0,0,0.1953575,-37.447113,1139.6393)" />
      <text
         xml:space="preserve"
         style="font-size:41.47386932px;font-style:normal;font-weight:normal;line-height:125%;letter-spacing:0px;word-spacing:0px;fill:url(#radialGradient3953);fill-opacity:1;stroke:none;font-family:Sans"
         x="19.223078"
         y="1032.2855"
         id="text3941"
         sodipodi:linespacing="125%"><tspan
           sodipodi:role="line"
           id="tspan3943"
           x="19.223078"
           y="1032.2855"
           style="font-style:normal;font-variant:normal;font-weight:bold;font-stretch:normal;fill:url(#radialGradient3953);fill-opacity:1;font-family:Candara;-inkscape-font-specification:Candara Bold">)&gt;</tspan></text>
      <path
         sodipodi:type="arc"
         style="fill:none;stroke:#e4e4e4;stroke-width:8.69999981;stroke-miterlimit:4;stroke-opacity:1;stroke-dasharray:none"
         id="path3945"
         sodipodi:cx="296.98486"
         sodipodi:cy="-646.13727"
         sodipodi:rx="163.64471"
         sodipodi:ry="163.64471"
         d="m 383.91412,-784.78393 a 163.64471,163.64471 0 1 1 -0.15993,-0.10015"
         transform="matrix(0.18322637,0,0,0.18322637,-22.507683,1138.6786)"
         sodipodi:start="5.2724138"
         sodipodi:end="11.554446"
         sodipodi:open="true" />
    </g>
    <g
       id="g3963"
       transform="matrix(0.72832714,0,0,0.72954024,17.302588,284.73072)">
      <g
         transform="matrix(0.44744872,0,0,0.44744872,35.611849,581.73264)"
         id="g3928">
        <path
           sodipodi:type="arc"
           style="fill:url(#radialGradient3955);fill-opacity:1;fill-rule:evenodd;stroke:url(#linearGradient3957);stroke-width:16.99580383;stroke-linecap:butt;stroke-linejoin:miter;stroke-miterlimit:4;stroke-opacity:1;stroke-dasharray:none"
           id="path3063"
           sodipodi:cx="287.14285"
           sodipodi:cy="336.64789"
           sodipodi:rx="191.42857"
           sodipodi:ry="191.42857"
           d="m 478.57143,336.64789 c 0,105.72308 -85.7055,191.42857 -191.42858,191.42857 -105.72308,0 -191.428571,-85.70549 -191.428571,-191.42857 0,-105.72308 85.705491,-191.42858 191.428571,-191.42858 105.72308,0 191.42858,85.7055 191.42858,191.42858 z"
           transform="matrix(0.18039611,0,0,0.1803961,-24.113259,956.48419)" />
        <path
           sodipodi:type="arc"
           style="fill:none;stroke:#e4e4e4;stroke-width:15.4368515;stroke-miterlimit:4;stroke-opacity:1;stroke-dasharray:none"
           id="path3920"
           sodipodi:cx="296.98486"
           sodipodi:cy="-646.13727"
           sodipodi:rx="163.64471"
           sodipodi:ry="163.64471"
           d="m 383.91412,-784.78393 c 76.57244,48.0097 99.72711,149.00348 51.71741,225.57592 -48.00971,76.57243 -149.00348,99.72711 -225.57592,51.71741 -76.57244,-48.00971 -99.72711,-149.00349 -51.71741,-225.57592 47.97056,-76.51001 148.85071,-99.69986 225.41599,-51.81756"
           transform="matrix(0.19861413,0,0,0.19861413,-31.42346,1145.4607)"
           sodipodi:start="5.2724138"
           sodipodi:end="11.554446"
           sodipodi:open="true" />
      </g>
      <g
         style="fill:url(#radialGradient3971);fill-opacity:1"
         transform="matrix(0.05041824,0,0,0.05041824,34.15516,995.1359)"
         id="g3059">
        <path
           style="fill:url(#radialGradient3900);fill-opacity:1;fill-rule:nonzero;stroke:none"
           id="path3055"
           d="m 89.565815,733.13797 c 1.157944,-10.13751 6.66189,-18.79841 12.492145,-26.8815 4.14486,-5.38857 9.05158,-10.21727 14.7939,-13.89565 3.52788,-2.25987 5.58841,-3.06707 9.33481,-4.80415 6.10603,-2.36812 12.17617,-4.86161 18.45008,-6.74852 6.70911,-1.80303 13.67795,-1.91084 20.57544,-2.02241 6.19598,-0.10555 12.37332,-0.15703 18.5404,0.49558 7.62532,1.24493 14.29182,4.67931 20.53129,9.07435 5.22071,4.7247 10.06826,9.84172 15.04604,14.81949 4.63631,3.71735 8.58548,8.04958 11.81242,13.02273 3.37952,4.83584 4.46729,10.57505 5.0312,16.31818 0.70288,7.66142 -0.03,15.28115 -0.87644,22.89227 -1.57241,10.25262 -4.16115,20.30256 -7.20567,30.2047 -2.2289,7.41689 -4.96312,14.67817 -8.16293,21.72866 -2.12379,4.51168 -4.43258,8.9177 -6.4605,13.47301 8.50403,-13.46978 -20.5573,-19.46735 -24.45174,-21.95357 -0.37343,-0.23839 0.75539,-0.46591 1.10752,-0.73477 0.69751,-0.53258 1.28611,-1.19448 1.93697,-1.78317 4.19306,-4.56493 8.57236,-8.95572 13.19508,-13.08452 3.66571,-3.42901 7.53291,-6.61656 11.70675,-9.40234 5.2679,-3.29146 11.21926,-4.55934 17.32161,-5.01042 1.89675,-0.41017 4.62293,-0.71974 6.8616,-1.22959 3.2331,-1.35239 6.82726,-2.04395 10.32201,-2.5841 4.11341,-0.5023 8.26277,-0.52803 12.40043,-0.54713 4.48731,-0.10275 8.94611,0.0279 13.40567,0.54785 6.4556,0.91348 12.45108,3.28747 18.02361,6.60407 4.77094,2.83954 8.65106,6.75073 12.08625,11.05286 2.59791,3.80941 5.1179,7.63708 7.19735,11.75643 2.46811,4.52155 3.65351,9.46938 4.31231,14.53511 0.44309,4.3264 0.4172,8.68076 0.42142,13.02421 0.4707,7.10975 -1.31313,13.95923 -3.32022,20.70434 -2.00733,6.57865 -4.68318,12.91233 -7.54989,19.15535 -2.25436,4.45699 -4.14161,9.08672 -6.10797,13.675 -2.2293,5.38856 -5.02801,10.48425 -7.90751,15.54211 -1.74886,3.70255 -3.41523,7.44755 -5.0254,11.21416 -2.56836,4.9802 -4.09176,10.38903 -5.92657,15.66136 -2.02721,5.24734 -3.06788,10.6544 -3.65268,16.22002 -0.31128,6.44549 -1.04723,12.83491 -2.07504,19.20224 -0.81512,4.80604 -1.08043,9.67392 -1.23146,14.53811 -0.30873,4.27548 -0.025,8.4858 0.43538,12.72742 0.53563,1.5508 1.26084,6.59535 2.03606,7.51337 1.07945,3.0424 0.16294,0.34796 0.12614,0.2592 -0.40069,-0.9665 -0.76685,-1.24726 0.0952,-0.58124 1.82978,1.54719 5.52035,5.21498 7.58958,5.98903 2.16892,1.34021 4.2076,2.88219 6.75537,3.34929 2.03878,0.16037 4.08215,0.21701 6.12737,0.2365 4.08118,0.002 8.16233,-0.0225 12.24349,-0.034 5.1652,-0.0128 10.33041,-0.0143 15.49563,-0.0155 5.98447,-0.56061 11.94272,-1.49897 17.88734,-2.40734 4.06263,-1.35587 8.38886,-1.94947 12.35705,-3.57196 3.43526,-1.73767 6.82482,-3.58399 10.23504,-5.38722 3.859,-2.17857 7.72661,-4.35595 11.52102,-6.64911 3.90858,-2.09619 7.82406,-4.18647 11.77953,-6.19683 5.87824,-2.64074 11.96476,-4.76484 17.90743,-7.25284 2.59771,-1.07109 5.10292,-2.34501 7.63985,-3.54902 22.81555,-10.82617 38.12606,21.43989 15.31051,32.26605 l 0,0 c -3.04577,1.44496 -6.06204,2.957 -9.18299,4.23702 -5.13554,2.14166 -10.33391,4.11576 -15.51325,6.14716 -3.22091,1.6313 -6.3988,3.3456 -9.60558,4.9968 -4.36978,2.5978 -8.77745,5.1317 -13.21876,7.6029 -4.7426,2.4889 -9.39591,5.1743 -14.34523,7.2301 -6.34127,2.3029 -12.92841,3.8967 -19.49114,5.4316 -7.71928,1.1791 -15.46628,2.453 -23.27223,2.817 -5.13463,0 -10.26928,0 -15.4039,0.015 -4.24484,0.012 -8.48968,0.039 -12.73454,0.032 -5.05334,-0.06 -10.13251,-0.2627 -15.06509,-1.4741 -5.99504,-1.7196 -11.6084,-4.2416 -16.75773,-7.7933 -4.14413,-2.8047 -8.25451,-5.707 -11.85545,-9.2108 -4.45764,-4.11 -8.46154,-8.6689 -10.30138,-14.596 -1.67677,-5.07402 -3.10558,-10.2548 -3.86554,-15.55432 -0.63868,-5.89583 -0.96018,-11.79091 -0.6251,-17.72266 0.21037,-6.38881 0.60641,-12.77831 1.67055,-19.09058 0.93486,-5.77698 1.52235,-11.56992 1.83262,-17.41764 0.93444,-8.21964 2.52516,-16.28291 5.42634,-24.05807 2.10781,-6.04064 3.9087,-12.22661 6.81367,-17.95076 2.1427,-5.01036 4.33636,-10.01259 6.83427,-14.85595 2.22124,-3.89464 4.42833,-7.78857 6.12187,-11.95454 2.11313,-4.90579 4.13674,-9.85921 6.5368,-14.63422 2.21925,-4.67369 4.18696,-9.46154 5.73858,-14.39799 2.07792,-6.77632 -0.8065,2.73286 1.30353,-4.58922 0.1102,-0.38243 0.46466,-0.69039 0.49318,-1.08737 0.002,-0.0313 0.007,-4.5548 0.007,-4.69904 -0.002,-2.94691 0.0264,-5.89882 -0.17179,-8.84072 -0.0857,-1.19079 -0.13935,-2.1129 -1.04684,-3.29975 -0.89577,-2.00597 -2.50582,-3.77094 -3.53246,-5.7291 0.74827,0.4681 -1.54501,-1.7929 -1.90192,-1.8912 -0.90987,-0.55089 -1.87297,-1.31247 -3.93849,-1.78501 -2.98305,-0.37874 -5.97129,-0.32187 -8.98432,-0.29264 -2.48076,0.0102 -4.96291,0.0235 -7.4398,0.17898 -2.63486,0.27412 -5.02634,1.48493 -7.59432,2.08036 -4.08395,0.91256 -8.22175,1.49078 -12.37048,2.02535 -1.20908,0.0426 -0.92342,0.14507 -0.41329,-0.54139 -2.16489,0.82141 -5.32122,4.66142 -7.31793,6.09296 -4.71535,4.06639 -8.78001,8.80535 -13.2466,13.12989 -2.65703,2.30373 -3.17443,2.86205 -6.10701,4.93954 -0.75696,0.53625 -1.47954,1.83665 -2.34402,1.50016 -21.37916,-8.32152 -33.11134,-5.83803 -26.34838,-23.31996 2.08723,-4.68453 4.41276,-9.2379 6.63443,-13.85742 2.62246,-5.58082 4.65392,-11.43347 6.47874,-17.31631 2.39217,-7.77032 4.45164,-15.63122 5.8456,-23.65082 0.5858,-5.26584 1.27681,-10.50564 0.79472,-15.8173 -0.0381,-0.71703 -0.39746,-1.83177 0.2617,-0.55952 1.49155,2.87889 -0.10063,-0.55269 -0.41993,-0.64383 0.18213,0.20136 0.77742,0.75392 0.60886,0.54106 -1.97529,-2.49442 -4.82693,-4.29366 -6.99848,-6.57939 -3.65523,-3.6734 -7.69943,-7.25032 -10.9032,-11.25905 -0.98685,-0.88941 -2.04314,-1.47739 -3.26307,-2.00184 -0.26668,-0.11465 -0.80564,-0.0383 -0.80648,-0.32855 -7.9e-4,-0.26863 0.53696,-0.0179 0.80544,-0.0268 -4.68581,-0.53622 -9.39911,-0.2826 -14.11202,-0.28948 -3.79904,0.0567 -7.65053,-0.005 -11.40129,0.67545 -4.64526,0.9581 -8.8889,3.64702 -13.45074,4.92047 -4.38977,1.89228 -7.10382,3.31644 -10.07607,7.30818 -1.61741,2.12417 -3.06773,4.33127 -4.4514,6.61544 -0.25588,0.42242 -0.4561,0.87883 -0.73467,1.28664 -0.0759,0.11105 -0.27321,0.12355 -0.31574,0.25113 -0.16381,0.49141 -0.18511,1.01931 -0.27766,1.52896 -2.78881,25.09936 -38.284662,21.15537 -35.495845,-3.94398 z"
           inkscape:connector-curvature="0" />
        <path
           style="fill:url(#radialGradient3902);fill-opacity:1;fill-rule:nonzero;stroke:none"
           id="path3057"
           d="m 431.56984,800.93386 c -1.51063,-3.48795 -3.78574,-6.28477 -6.25263,-9.08977 -0.22775,-0.20655 -0.43125,-0.44348 -0.68324,-0.61965 -0.25768,-0.18014 0.91611,0.82281 0.6235,0.70778 -0.52547,-0.20658 -0.95747,-0.59912 -1.4464,-0.8815 -0.0754,-0.0436 -0.30716,-0.15414 -0.2436,-0.0946 0.1243,0.11646 0.28848,0.18118 0.43272,0.27177 2.88445,1.26413 -2.85022,-0.78674 -3.74948,-0.84135 -2.68224,-0.17948 -5.31224,-0.8358 -7.97127,-1.22198 -2.90028,-0.29778 -5.81959,-0.32787 -8.73228,-0.3648 -2.54326,-0.0263 -5.84629,-0.11959 -7.57592,0.18593 -0.1026,-0.41801 -4.41378,1.49316 -2.77413,1.15324 -4.49976,3.71149 -9.51952,6.67809 -14.48825,9.70134 -2.17285,1.25772 -4.31083,2.60935 -6.34344,4.08699 -0.36395,0.26458 -1.32923,0.99871 -0.87996,1.02365 0.0625,-0.0196 0.21293,-0.11929 0.18745,-0.0589 -1.12754,2.67008 -3.11985,4.8962 -4.54243,7.39496 -1.66703,3.57349 -5.2203,5.80888 -7.25144,9.09351 0.82584,-0.48164 1.22912,-2.41433 1.38148,-2.79744 -5.11819,24.72972 -40.0913,17.4915 -34.97311,-7.23822 l 0,0 c 1.19453,-4.07668 2.2704,-7.85112 4.91958,-11.25808 0.47188,-0.61672 4.49586,-6.00759 5.16779,-6.1357 0.14959,-0.0285 -0.27346,0.54069 -0.18174,0.41914 0.28488,-0.37751 0.51096,-0.79597 0.76644,-1.19396 0.45101,-0.69574 0.89114,-1.39865 1.35303,-2.08722 0.23791,-0.35466 0.39344,-0.80048 0.74585,-1.0417 0.21427,-0.14667 -0.40982,0.95245 -0.28379,0.72543 1.57228,-2.83216 2.88787,-5.79653 4.97693,-8.32372 0.9287,-1.07417 1.79877,-2.20197 2.78612,-3.2225 3.92062,-4.05241 8.8422,-6.97404 13.60816,-9.89721 4.68988,-2.85312 9.3479,-5.70178 13.62812,-9.16113 5.20954,-3.12225 10.68482,-5.81622 16.82033,-6.48962 4.45941,-0.64421 8.92361,-0.7204 13.42275,-0.58993 4.5268,0.0614 9.06561,0.15003 13.55894,0.75663 3.35257,0.51178 6.65257,1.19156 10.01925,1.59038 4.60316,1.02896 5.34531,1.44984 10.01874,2.77449 5.43683,2.42666 10.56707,5.53103 14.53683,10.06555 4.83744,5.51353 9.02475,11.43877 12.05523,18.15328 10.25654,23.07722 -22.37959,37.58217 -32.63613,14.50494 z"
           inkscape:connector-curvature="0" />
      </g>
    </g>
  </g>
</svg>
