<?xml version="1.0" encoding="UTF-8" standalone="no"?>
<!-- Created with Inkscape (http://www.inkscape.org/) -->

<svg
   xmlns:dc="http://purl.org/dc/elements/1.1/"
   xmlns:cc="http://creativecommons.org/ns#"
   xmlns:rdf="http://www.w3.org/1999/02/22-rdf-syntax-ns#"
   xmlns:svg="http://www.w3.org/2000/svg"
   xmlns="http://www.w3.org/2000/svg"
   xmlns:xlink="http://www.w3.org/1999/xlink"
   xmlns:sodipodi="http://sodipodi.sourceforge.net/DTD/sodipodi-0.dtd"
   xmlns:inkscape="http://www.inkscape.org/namespaces/inkscape"
   width="640"
   height="198"
   id="svg2"
   version="1.1"
   inkscape:version="0.48.0 r9654"
   sodipodi:docname="logo.svg"
   inkscape:export-filename="E:\SharpDevelop Projects\MultiMedia\MultiMedia\logo3.png"
   inkscape:export-xdpi="90"
   inkscape:export-ydpi="90">
  <defs
     id="defs4">
    <pattern
       inkscape:collect="always"
       xlink:href="#pattern4711"
       id="pattern4713"
       patternTransform="matrix(0.06663528,0,0,0.06663528,252.43805,936.30455)" />
    <pattern
       inkscape:collect="always"
       xlink:href="#pattern4709"
       id="pattern4711"
       patternTransform="matrix(0.06663528,0,0,0.06663528,215.29519,942.01884)" />
    <pattern
       inkscape:collect="always"
       xlink:href="#pattern4707"
       id="pattern4709"
       patternTransform="matrix(0.09134026,0,0,0.09134026,-59.362499,929.23985)" />
    <pattern
       inkscape:collect="always"
       xlink:href="#pattern4705"
       id="pattern4707"
       patternTransform="matrix(0.09134026,0,0,0.09134026,269.20893,929.23985)" />
    <pattern
       inkscape:collect="always"
       xlink:href="#pattern4697"
       id="pattern4705"
       patternTransform="matrix(0.10628184,0,0,0.10628184,150.66968,925.06998)" />
    <pattern
       inkscape:collect="always"
       xlink:href="#pattern4697"
       id="pattern4703"
       patternTransform="matrix(0.10628184,0,0,0.10628184,149.24111,862.21284)" />
    <pattern
       inkscape:collect="always"
       xlink:href="#pattern4695"
       id="pattern4697"
       patternTransform="matrix(0.10628184,0,0,0.10628184,149.24111,862.21284)" />
    <pattern
       inkscape:collect="always"
       xlink:href="#pattern4693"
       id="pattern4695"
       patternTransform="matrix(0.10628184,0,0,0.10628184,159.24111,847.92713)" />
    <pattern
       inkscape:collect="always"
       xlink:href="#pattern4691"
       id="pattern4693"
       patternTransform="matrix(0.10628184,0,0,0.10628184,147.81254,856.49856)" />
    <pattern
       inkscape:collect="always"
       xlink:href="#pattern4689"
       id="pattern4691"
       patternTransform="matrix(0.10628184,0,0,0.10628184,144.9554,870.78427)" />
    <pattern
       inkscape:collect="always"
       xlink:href="#pattern4687"
       id="pattern4689"
       patternTransform="matrix(0.10628184,0,0,0.10628184,224.9554,870.78427)" />
    <pattern
       inkscape:collect="always"
       xlink:href="#pattern4677"
       id="pattern4687"
       patternTransform="matrix(0.15435279,0,0,0.15435279,193.5839,857.36869)" />
    <pattern
       inkscape:collect="always"
       xlink:href="#pattern4675"
       id="pattern4677"
       patternTransform="matrix(0.16754122,0,0,0.16754122,185.49102,853.85788)" />
    <pattern
       inkscape:collect="always"
       xlink:href="#pattern4673"
       id="pattern4675"
       patternTransform="matrix(0.16754122,0,0,0.16754122,115.49102,782.42931)" />
    <pattern
       inkscape:collect="always"
       xlink:href="#pattern4671"
       id="pattern4673"
       patternTransform="matrix(0.16754122,0,0,0.16754122,115.49102,782.42931)" />
    <pattern
       inkscape:collect="always"
       xlink:href="#pattern4669"
       id="pattern4671"
       patternTransform="matrix(0.315678,0,0,0.315678,27.156675,756.70016)" />
    <pattern
       inkscape:collect="always"
       xlink:href="#pattern3933"
       id="pattern4669"
       patternTransform="matrix(0.39099323,0,0,0.39099323,-17.753985,743.61904)" />
    <pattern
       patternUnits="userSpaceOnUse"
       width="166.25"
       height="151.70592"
       patternTransform="translate(-380.90625,637.84375)"
       id="pattern3933">
      <g
         style="stroke-width:1.70000005;stroke-miterlimit:4;stroke-dasharray:none"
         id="g3894"
         transform="translate(380.90625,-637.84375)">
        <g
           id="g3917">
          <path
             transform="translate(70.21875,779.86217)"
             inkscape:connector-curvature="0"
             id="path3878"
             d="m -385.87827,-80.802102 80.8122,0"
             style="fill:none;stroke:#000000;stroke-width:1.70000005;stroke-linecap:butt;stroke-linejoin:miter;stroke-miterlimit:4;stroke-opacity:1;stroke-dasharray:none" />
          <path
             transform="translate(70.21875,779.86217)"
             inkscape:connector-curvature="0"
             id="path3882"
             d="m -438.4062,-72.720882 66.67006,0"
             style="fill:none;stroke:#000000;stroke-width:1.70000005;stroke-linecap:butt;stroke-linejoin:miter;stroke-miterlimit:4;stroke-opacity:1;stroke-dasharray:none" />
          <path
             transform="translate(70.21875,779.86217)"
             inkscape:connector-curvature="0"
             id="path3884"
             d="m -402.04071,-58.578746 94.95434,0"
             style="fill:none;stroke:#000000;stroke-width:1.70000005;stroke-linecap:butt;stroke-linejoin:miter;stroke-miterlimit:4;stroke-opacity:1;stroke-dasharray:none" />
          <path
             transform="translate(70.21875,779.86217)"
             inkscape:connector-curvature="0"
             id="path3886"
             d="m -365.67522,-44.436611 80.8122,0"
             style="fill:none;stroke:#000000;stroke-width:1.70000005;stroke-linecap:butt;stroke-linejoin:miter;stroke-miterlimit:4;stroke-opacity:1;stroke-dasharray:none" />
          <path
             transform="translate(70.21875,779.86217)"
             inkscape:connector-curvature="0"
             id="path3888"
             d="M -446.48742,-58.578746 -378.8072,9.1014741"
             style="fill:none;stroke:#000000;stroke-width:1.70000005;stroke-linecap:butt;stroke-linejoin:miter;stroke-miterlimit:4;stroke-opacity:1;stroke-dasharray:none" />
          <path
             transform="translate(70.21875,779.86217)"
             inkscape:connector-curvature="0"
             id="path3890"
             d="m -402.04071,-40.396001 41.41625,41.4162548"
             style="fill:none;stroke:#000000;stroke-width:1.70000005;stroke-linecap:butt;stroke-linejoin:miter;stroke-miterlimit:4;stroke-opacity:1;stroke-dasharray:none" />
          <path
             style="fill:none;stroke:#000000;stroke-width:1.70000005;stroke-linecap:butt;stroke-linejoin:miter;stroke-miterlimit:4;stroke-opacity:1;stroke-dasharray:none"
             d="m -291.41586,745.52708 36.36549,36.3655"
             id="path3903"
             inkscape:connector-curvature="0" />
          <path
             style="fill:none;stroke:#000000;stroke-width:1.70000005;stroke-linecap:butt;stroke-linejoin:miter;stroke-miterlimit:4;stroke-opacity:1;stroke-dasharray:none"
             d="m -259.09098,745.52708 36.36549,36.3655"
             id="path3905"
             inkscape:connector-curvature="0" />
          <path
             style="fill:none;stroke:#000000;stroke-width:1.70000005;stroke-linecap:butt;stroke-linejoin:miter;stroke-miterlimit:4;stroke-opacity:1;stroke-dasharray:none"
             d="m -263.13159,642.49153 36.36549,36.36549"
             id="path3907"
             inkscape:connector-curvature="0" />
          <path
             style="fill:none;stroke:#000000;stroke-width:1.70000005;stroke-linecap:butt;stroke-linejoin:miter;stroke-miterlimit:4;stroke-opacity:1;stroke-dasharray:none"
             d="m -317.67983,644.51183 36.36549,36.36549"
             id="path3909"
             inkscape:connector-curvature="0" />
          <path
             style="fill:none;stroke:#000000;stroke-width:1.70000005;stroke-linecap:butt;stroke-linejoin:miter;stroke-miterlimit:4;stroke-opacity:1;stroke-dasharray:none"
             d="m -358.08593,648.55244 36.36549,36.36549"
             id="path3911"
             inkscape:connector-curvature="0" />
          <path
             style="fill:none;stroke:#000000;stroke-width:1.70000005;stroke-linecap:butt;stroke-linejoin:miter;stroke-miterlimit:4;stroke-opacity:1;stroke-dasharray:none"
             d="m -341.92349,646.53214 36.36549,36.36549"
             id="path3913"
             inkscape:connector-curvature="0" />
          <path
             style="fill:none;stroke:#000000;stroke-width:1.70000005;stroke-linecap:butt;stroke-linejoin:miter;stroke-miterlimit:4;stroke-opacity:1;stroke-dasharray:none"
             d="m -380.30928,648.55244 36.36549,36.36549"
             id="path3915"
             inkscape:connector-curvature="0" />
          <path
             inkscape:connector-curvature="0"
             id="path3892"
             d="m -295.45647,638.45092 36.36549,36.36549"
             style="fill:none;stroke:#000000;stroke-width:1.70000005;stroke-linecap:butt;stroke-linejoin:miter;stroke-miterlimit:4;stroke-opacity:1;stroke-dasharray:none" />
        </g>
      </g>
    </pattern>
  </defs>
  <sodipodi:namedview
     id="base"
     pagecolor="#ffffff"
     bordercolor="#666666"
     borderopacity="1.0"
     inkscape:pageopacity="0.0"
     inkscape:pageshadow="2"
     inkscape:zoom="0.98994949"
     inkscape:cx="618.59273"
     inkscape:cy="-65.521693"
     inkscape:document-units="px"
     inkscape:current-layer="layer1"
     showgrid="false"
     inkscape:window-width="678"
     inkscape:window-height="455"
     inkscape:window-x="-32000"
     inkscape:window-y="-32000"
     inkscape:window-maximized="0"
     showguides="true"
     inkscape:guide-bbox="true"
     fit-margin-top="0"
     fit-margin-left="0"
     fit-margin-right="0"
     fit-margin-bottom="0" />
  <metadata
     id="metadata7">
    <rdf:RDF>
      <cc:Work
         rdf:about="">
        <dc:format>image/svg+xml</dc:format>
        <dc:type
           rdf:resource="http://purl.org/dc/dcmitype/StillImage" />
        <dc:title></dc:title>
      </cc:Work>
    </rdf:RDF>
  </metadata>
  <g
     inkscape:label="Layer 1"
     inkscape:groupmode="layer"
     id="layer1"
     transform="translate(-70.21875,-779.86217)">
    <path
       style="fill:#000000;fill-opacity:1;stroke:none"
       d="m 1531.9356,514.12717 c 0,0 -55.7143,-4.28572 -56.4285,-57.85715 -0.7143,-53.57143 38.5714,-63.57143 59.2857,-64.28571 20.7142,-0.71429 52.8571,31.42857 50.7142,57.85714 -2.4512,-13.78606 -18.8181,-47.92972 -55.7142,-48.57143 -47.1429,0.71429 -47.8572,42.85715 -47.8572,54.28572 0,11.42857 0,50.71429 50,58.57143 z"
       id="path3759"
       inkscape:connector-curvature="0"
       sodipodi:nodetypes="cssccsc" />
    <path
       sodipodi:nodetypes="ccc"
       inkscape:connector-curvature="0"
       id="path3765"
       d="m 1345.5993,509.84146 c 50.3604,-138.5514 -133.2122,-134.82116 -79.2857,-7.14287 -71.2459,-149.88693 152.8139,-126.57628 79.2857,7.14287 z"
       style="fill:#000000;fill-opacity:1;stroke:none" />
    <path
       style="fill:#000000;fill-opacity:1;stroke:none"
       d="m 1132.3491,501.37811 c 50.6724,-81.26355 120.8033,15.0599 34.7399,38.11186 104.1486,-22.96012 4.3858,-129.41738 -34.7399,-38.11186 z"
       id="path3763"
       inkscape:connector-curvature="0"
       sodipodi:nodetypes="ccc" />
    <path
       style="fill:#000000;fill-opacity:1;stroke:none"
       d="m 1271.8478,530.81789 c 0,0 48.5318,27.69681 26.2711,76.42946 -22.2607,48.73264 -62.0498,40.97439 -81.0804,32.76295 -19.0306,-8.21143 -34.3431,-51.01159 -21.1056,-73.9861 -3.6788,13.51039 -3.4829,51.37363 29.5959,67.72998 42.9214,19.5119 61.5867,-18.27877 66.4734,-28.60991 4.8867,-10.33114 21.6847,-45.84444 -20.1544,-74.32638 z"
       id="path2985"
       inkscape:connector-curvature="0"
       sodipodi:nodetypes="cssccsc" />
    <g
       transform="matrix(1.5045311,0,0,1.5045311,-144.80373,-382.01798)"
       id="g3803">
      <path
         inkscape:connector-curvature="0"
         id="path3805"
         d="m 196.43216,787.34878 c -17.75511,0 -32.15179,14.39668 -32.15179,32.15179 0,17.75511 14.39668,32.15179 32.15179,32.15179 17.7551,0 32.14016,-14.39668 32.14016,-32.15179 0,-17.75511 -14.38506,-32.15179 -32.14016,-32.15179 z m 2.52239,1.06941 c 15.62743,0 28.29264,12.66521 28.29264,28.29264 0,15.62743 -12.66521,28.29264 -28.29264,28.29264 -15.62743,0 -28.30427,-12.66521 -28.30427,-28.29264 0,-15.62743 12.67684,-28.29264 28.30427,-28.29264 z"
         style="fill:#45afba;fill-opacity:1;stroke:none" />
      <path
         inkscape:connector-curvature="0"
         id="path3809"
         d="m 197.93617,816.31537 c -6.45757,0 -11.69367,5.2361 -11.69367,11.69367 0,6.45757 5.2361,11.69367 11.69367,11.69367 6.45757,0 11.68944,-5.2361 11.68944,-11.69367 0,-6.45757 -5.23187,-11.69367 -11.68944,-11.69367 z m 0.9174,0.38894 c 5.68372,0 10.29009,4.60637 10.29009,10.2901 0,5.68372 -4.60637,10.29009 -10.29009,10.29009 -5.68373,0 -10.29432,-4.60637 -10.29432,-10.29009 0,-5.68373 4.61059,-10.2901 10.29432,-10.2901 z"
         style="fill:#ff0e0e;fill-opacity:1;stroke:none" />
      <path
         inkscape:connector-curvature="0"
         id="path3862"
         d="m 210.20285,804.60484 c -6.45757,0 -11.69367,5.2361 -11.69367,11.69367 0,6.45757 5.2361,11.69368 11.69367,11.69368 6.45757,0 11.68944,-5.23611 11.68944,-11.69368 0,-6.45757 -5.23187,-11.69367 -11.68944,-11.69367 z m 0.9174,0.38894 c 5.68373,0 10.29009,4.60637 10.29009,10.2901 0,5.68373 -4.60636,10.29009 -10.29009,10.29009 -5.68373,0 -10.29432,-4.60636 -10.29432,-10.29009 0,-5.68373 4.61059,-10.2901 10.29432,-10.2901 z"
         style="fill:#48a500;fill-opacity:1;stroke:none" />
      <path
         inkscape:connector-curvature="0"
         id="path3864"
         d="m 184.84072,806.82958 c -6.45757,0 -11.69367,5.2361 -11.69367,11.69367 0,6.45757 5.2361,11.69368 11.69367,11.69368 6.45757,0 11.68944,-5.23611 11.68944,-11.69368 0,-6.45757 -5.23187,-11.69367 -11.68944,-11.69367 z m 0.9174,0.38894 c 5.68373,0 10.29009,4.60637 10.29009,10.2901 0,5.68373 -4.60636,10.29009 -10.29009,10.29009 -5.68373,0 -10.29432,-4.60636 -10.29432,-10.29009 0,-5.68373 4.61059,-10.2901 10.29432,-10.2901 z"
         style="fill:#00e7ff;fill-opacity:1;stroke:none" />
      <path
         style="fill:#fffc13;fill-opacity:1;stroke:none"
         d="m 195.51951,797.48564 c -6.45757,0 -11.69367,5.2361 -11.69367,11.69367 0,6.45757 5.2361,11.69368 11.69367,11.69368 6.45757,0 11.68944,-5.23611 11.68944,-11.69368 0,-6.45757 -5.23187,-11.69367 -11.68944,-11.69367 z m 0.9174,0.38894 c 5.68373,0 10.29009,4.60637 10.29009,10.2901 0,5.68373 -4.60636,10.29009 -10.29009,10.29009 -5.68373,0 -10.29432,-4.60636 -10.29432,-10.29009 0,-5.68373 4.61059,-10.2901 10.29432,-10.2901 z"
         id="path3811"
         inkscape:connector-curvature="0" />
    </g>
    <g
       id="g3821"
       transform="matrix(0.89793775,0,0,0.89793775,-177.68717,19.623675)"
       style="fill:#32367e;fill-opacity:1">
      <path
         style="fill:#32367e;fill-opacity:1;stroke:none"
         d="m 203.925,803.82155 c -6.45757,0 -11.69367,5.2361 -11.69367,11.69367 0,6.45757 5.2361,11.69367 11.69367,11.69367 6.45757,0 11.68944,-5.2361 11.68944,-11.69367 0,-6.45757 -5.23187,-11.69367 -11.68944,-11.69367 z m 0.9174,0.38894 c 5.68373,0 10.29009,4.60637 10.29009,10.29009 0,5.68373 -4.60636,10.2901 -10.29009,10.2901 -5.68373,0 -10.29432,-4.60637 -10.29432,-10.2901 0,-5.68372 4.61059,-10.29009 10.29432,-10.29009 z"
         id="path3823"
         inkscape:connector-curvature="0" />
    </g>
    <g
       style="fill:#327e3a;fill-opacity:1"
       transform="matrix(-0.89793775,0,0,0.89793775,185.85365,-4.1430051)"
       id="g3813">
      <path
         inkscape:connector-curvature="0"
         id="path3815"
         d="m 203.925,803.82155 c -6.45757,0 -11.69367,5.2361 -11.69367,11.69367 0,6.45757 5.2361,11.69367 11.69367,11.69367 6.45757,0 11.68944,-5.2361 11.68944,-11.69367 0,-6.45757 -5.23187,-11.69367 -11.68944,-11.69367 z m 0.9174,0.38894 c 5.68373,0 10.29009,4.60637 10.29009,10.29009 0,5.68373 -4.60636,10.2901 -10.29009,10.2901 -5.68373,0 -10.29432,-4.60637 -10.29432,-10.2901 0,-5.68372 4.61059,-10.29009 10.29432,-10.29009 z"
         style="fill:#327e3a;fill-opacity:1;stroke:none" />
    </g>
    <g
       style="fill:#7e3232;fill-opacity:1"
       transform="matrix(0.89793775,0,0,0.89793775,-173.49179,19.987745)"
       id="g3817">
      <path
         inkscape:connector-curvature="0"
         id="path3819"
         d="m 203.925,803.82155 c -6.45757,0 -11.69367,5.2361 -11.69367,11.69367 0,6.45757 5.2361,11.69367 11.69367,11.69367 6.45757,0 11.68944,-5.2361 11.68944,-11.69367 0,-6.45757 -5.23187,-11.69367 -11.68944,-11.69367 z m 0.9174,0.38894 c 5.68373,0 10.29009,4.60637 10.29009,10.29009 0,5.68373 -4.60636,10.2901 -10.29009,10.2901 -5.68373,0 -10.29432,-4.60637 -10.29432,-10.2901 0,-5.68372 4.61059,-10.29009 10.29432,-10.29009 z"
         style="fill:#7e3232;fill-opacity:1;stroke:none" />
    </g>
    <g
       id="g3797"
       transform="matrix(0.89793775,0,0,0.89793775,-124.46456,3.3166949)"
       style="fill:#ff9f0b;fill-opacity:1">
      <path
         style="fill:#ff9f0b;fill-opacity:1;stroke:none"
         d="m 203.925,803.82155 c -6.45757,0 -11.69367,5.2361 -11.69367,11.69367 0,6.45757 5.2361,11.69367 11.69367,11.69367 6.45757,0 11.68944,-5.2361 11.68944,-11.69367 0,-6.45757 -5.23187,-11.69367 -11.68944,-11.69367 z m 0.9174,0.38894 c 5.68373,0 10.29009,4.60637 10.29009,10.29009 0,5.68373 -4.60636,10.2901 -10.29009,10.2901 -5.68373,0 -10.29432,-4.60637 -10.29432,-10.2901 0,-5.68372 4.61059,-10.29009 10.29432,-10.29009 z"
         id="path3777"
         inkscape:connector-curvature="0" />
    </g>
    <text
       xml:space="preserve"
       style="font-size:121.41617584px;font-style:normal;font-variant:normal;font-weight:bold;font-stretch:normal;text-align:start;line-height:125%;letter-spacing:0px;word-spacing:0px;writing-mode:lr-tb;text-anchor:start;fill:url(#pattern4703);fill-opacity:1;stroke:#000000;stroke-width:0.21490191;stroke-miterlimit:4;stroke-opacity:1;stroke-dasharray:none;font-family:Aharoni;-inkscape-font-specification:Aharoni Bold"
       x="212.06905"
       y="889.57281"
       id="text4699"
       sodipodi:linespacing="125%"><tspan
         style="font-size:121.41617584px;fill:url(#pattern4703);fill-opacity:1;stroke:#000000;stroke-width:0.21490191;stroke-miterlimit:4;stroke-opacity:1;stroke-dasharray:none"
         sodipodi:role="line"
         id="tspan4701"
         x="212.06905"
         y="889.57281">Mediachrome</tspan></text>
    <text
       sodipodi:linespacing="125%"
       id="text3793"
       y="953.45837"
       x="291.82916"
       style="font-size:76.12401581px;font-style:normal;font-variant:normal;font-weight:bold;font-stretch:normal;text-align:start;line-height:125%;letter-spacing:0px;word-spacing:0px;writing-mode:lr-tb;text-anchor:start;opacity:0.70796461;fill:url(#pattern4713);fill-opacity:1;stroke:#000000;stroke-width:0.13473655;stroke-miterlimit:4;stroke-opacity:1;stroke-dasharray:none;font-family:Aharoni;-inkscape-font-specification:Aharoni Bold"
       xml:space="preserve"><tspan
         y="953.45837"
         x="291.82916"
         id="tspan3795"
         sodipodi:role="line"
         style="font-size:76.12401581px;fill:url(#pattern4713);fill-opacity:1;stroke:#000000;stroke-width:0.13473655;stroke-miterlimit:4;stroke-opacity:1;stroke-dasharray:none">Listen to your heart</tspan></text>
    <g
       id="g3850"
       transform="matrix(0.92965274,0,0,0.92965274,-93.094893,-113.18505)">
      <path
         id="path3827"
         transform="translate(0,412.36217)"
         d="m 69.1875,452.875 c -13.66835,0 -24.75,11.08165 -24.75,24.75 0,13.66835 11.08165,24.75 24.75,24.75 13.66835,0 24.75,-11.08165 24.75,-24.75 0,-13.66835 -11.08165,-24.75 -24.75,-24.75 z m -1,5.3125 c 0.331432,-0.0168 0.664393,0 1,0 10.739418,0 19.46875,8.69808 19.46875,19.4375 0,10.73942 -8.729332,19.4375 -19.46875,19.4375 -10.739418,0 -19.4375,-8.69808 -19.4375,-19.4375 0,-10.40381 8.163117,-18.91669 18.4375,-19.4375 z"
         style="opacity:0.5442478;fill:#327e3a;fill-opacity:1;stroke:none"
         inkscape:connector-curvature="0" />
      <path
         style="fill:none;stroke:#ffffff;stroke-width:1px;stroke-linecap:butt;stroke-linejoin:miter;stroke-opacity:1"
         d="m 69.700526,864.97887 3.914341,3.91434 -4.134705,2.38718"
         id="path3832"
         inkscape:connector-curvature="0"
         inkscape:transform-center-x="-2.5673525"
         inkscape:transform-center-y="-23.233509" />
      <path
         style="fill:none;stroke:#ffffff;stroke-width:1px;stroke-linecap:butt;stroke-linejoin:miter;stroke-opacity:1"
         d="m 69.700526,864.97887 3.914341,3.91434 -4.134705,2.38718"
         id="path3834"
         inkscape:connector-curvature="0"
         inkscape:transform-center-x="-2.5673525"
         inkscape:transform-center-y="-23.233509" />
      <path
         style="fill:none;stroke:#ffffff;stroke-width:1px;stroke-linecap:butt;stroke-linejoin:miter;stroke-opacity:1"
         d="m 69.700526,864.97887 3.914341,3.91434 -4.134705,2.38718"
         id="path3838"
         inkscape:connector-curvature="0"
         inkscape:transform-center-x="-1.3046618"
         inkscape:transform-center-y="-21.71828" />
      <path
         style="fill:none;stroke:#ffffff;stroke-width:1px;stroke-linecap:butt;stroke-linejoin:miter;stroke-opacity:1"
         d="M 90.131039,874.90725 89.233188,880.36967 84.883,878.40236"
         id="path3840"
         inkscape:connector-curvature="0"
         inkscape:transform-center-x="-1.3046618"
         inkscape:transform-center-y="-21.71828" />
      <path
         style="fill:none;stroke:#ffffff;stroke-width:1px;stroke-linecap:butt;stroke-linejoin:miter;stroke-opacity:1"
         d="m 94.084363,896.94338 -4.924561,2.5284 -1.007087,-4.66692"
         id="path3842"
         inkscape:connector-curvature="0"
         inkscape:transform-center-x="-1.3046618"
         inkscape:transform-center-y="-21.71828" />
      <path
         style="fill:none;stroke:#ffffff;stroke-width:1px;stroke-linecap:butt;stroke-linejoin:miter;stroke-opacity:1"
         d="m 81.203069,912.17809 -5.198347,-1.90297 2.7457,-3.90584"
         id="path3844"
         inkscape:connector-curvature="0"
         inkscape:transform-center-x="-1.3046618"
         inkscape:transform-center-y="-21.71828" />
      <path
         style="fill:none;stroke:#ffffff;stroke-width:1px;stroke-linecap:butt;stroke-linejoin:miter;stroke-opacity:1"
         d="m 56.602052,910.64916 -1.008342,-5.44311 4.7596,0.37499"
         id="path3846"
         inkscape:connector-curvature="0"
         inkscape:transform-center-x="-1.3046618"
         inkscape:transform-center-y="-21.71828" />
      <path
         style="fill:none;stroke:#ffffff;stroke-width:1px;stroke-linecap:butt;stroke-linejoin:miter;stroke-opacity:1"
         d="m 44.977124,896.62697 3.050255,-4.61953 3.167539,3.57227"
         id="path3848"
         inkscape:connector-curvature="0"
         inkscape:transform-center-x="21.146679"
         inkscape:transform-center-y="3.206605" />
      <path
         inkscape:transform-center-y="-15.0375"
         inkscape:transform-center-x="15.045285"
         inkscape:connector-curvature="0"
         id="path3830"
         d="m 51.924747,871.98025 5.535489,0.0498 -1.277136,4.60036"
         style="fill:none;stroke:#ffffff;stroke-width:1px;stroke-linecap:butt;stroke-linejoin:miter;stroke-opacity:1" />
    </g>
    <rect
       style="opacity:0.18584068;fill:url(#pattern3933);stroke:none"
       width="166.25"
       height="151.70592"
       x="-380.90625"
       y="637.84375"
       id="rect3951" />
  </g>
</svg>
